<svg data-name="Learn More Icon" xmlns="http://www.w3.org/2000/svg" width="52" height="52">
  <g data-name="Ellipse 7" fill="none" stroke="#4484a6" stroke-width="2">
    <ellipse cx="18.236" cy="17.876" rx="18.236" ry="17.876" stroke="none"/>
    <ellipse cx="18.236" cy="17.876" rx="17.236" ry="16.876"/>
  </g>
  <g data-name="Path 17" fill="none">
    <path d="M30.358 28.69a4.121 4.121 0 015.743 0l12.921 12.66a3.922 3.922 0 01.001 5.626 4.121 4.121 0 01-5.743 0L30.358 34.318a3.922 3.922 0 010-5.628z"/>
    <path d="M31.743 30.135a1.926 1.926 0 00-.574 1.379 1.93 1.93 0 00.59 1.375l12.92 12.659a2.114 2.114 0 002.944 0l.016-.015c.372-.373.576-.863.573-1.38a1.929 1.929 0 00-.589-1.374l-12.921-12.66a2.114 2.114 0 00-2.943 0l-.016.016m-1.414-1.415l.03-.03a4.12 4.12 0 015.742 0l12.922 12.66a3.921 3.921 0 010 5.627 4.12 4.12 0 01-5.743 0l-12.922-12.66a3.921 3.921 0 01-.03-5.597z" fill="#4484a6"/>
  </g>
  <g data-name="Ellipse 8" transform="translate(6.343 6.218)" fill="none" stroke="#4484a6" stroke-width="2">
    <ellipse cx="11.893" cy="11.658" rx="11.893" ry="11.658" stroke="none"/>
    <ellipse cx="11.893" cy="11.658" rx="10.893" ry="10.658"/>
  </g>
</svg>