<svg id="Learn_More_Icon" data-name="Learn More Icon" xmlns="http://www.w3.org/2000/svg" viewBox="0 0 51.836 49.979">
  <g id="Ellipse_7" data-name="Ellipse 7" fill="none" stroke="#4484a6" stroke-width="2">
    <ellipse cx="18.236" cy="17.876" rx="18.236" ry="17.876" stroke="none"/>
    <ellipse cx="18.236" cy="17.876" rx="17.236" ry="16.876" fill="none"/>
  </g>
  <g id="Path_17" data-name="Path 17" transform="translate(27.556 31.504) rotate(-45)" fill="none">
    <path d="M3.971-.008A4.121,4.121,0,0,1,8.032,4.053l.185,18.088A3.922,3.922,0,0,1,4.239,26.12,4.121,4.121,0,0,1,.178,22.059L-.008,3.971A3.922,3.922,0,0,1,3.971-.008Z" stroke="none"/>
    <path d="M 3.928820133209229 1.992202758789062 C 3.401900291442871 1.992202758789062 2.91148042678833 2.194501876831055 2.547900199890137 2.56184196472168 C 2.184210300445557 2.929271697998047 1.986910343170166 3.422391891479492 1.99232006072998 3.950372695922852 L 2.177780151367188 22.03886222839355 C 2.189430236816406 23.17494201660156 3.123180389404297 24.10869216918945 4.258630275726318 24.12033271789551 L 4.280839920043945 24.12045288085938 C 4.807750225067139 24.12045288085938 5.29817008972168 23.91815185546875 5.661750316619873 23.55082321166992 C 6.025430202484131 23.18339157104492 6.222730159759521 22.69027328491211 6.217320442199707 22.16229248046875 L 6.0318603515625 4.073802947998047 C 6.020210266113281 2.937723159790039 5.086460113525391 2.003973007202148 3.951010227203369 1.99232292175293 L 3.928820133209229 1.992202758789062 M 3.928819179534912 -0.007793426513671875 C 3.942875385284424 -0.007793426513671875 3.956788539886475 -0.007720947265625 3.970880031585693 -0.007577896118164062 C 6.19087028503418 0.01519203186035156 8.008990287780762 1.833303451538086 8.031750679016113 4.053302764892578 L 8.217209815979004 22.14179229736328 C 8.239835739135742 24.34769058227539 6.481157779693604 26.12044906616211 4.280839443206787 26.12044906616211 C 4.266783237457275 26.12044906616211 4.252851963043213 26.12037658691406 4.238759994506836 26.1202335357666 C 2.018770217895508 26.09747314453125 0.2006502151489258 24.27935218811035 0.1778898239135742 22.05936241149902 L -0.007569313049316406 3.97087287902832 C -0.03019523620605469 1.764965057373047 1.728500843048096 -0.007793426513671875 3.928819179534912 -0.007793426513671875 Z" stroke="none" fill="#4484a6"/>
  </g>
  <g id="Ellipse_8" data-name="Ellipse 8" transform="translate(6.343 6.218)" fill="none" stroke="#4484a6" stroke-width="2">
    <ellipse cx="11.893" cy="11.658" rx="11.893" ry="11.658" stroke="none"/>
    <ellipse cx="11.893" cy="11.658" rx="10.893" ry="10.658" fill="none"/>
  </g>
</svg>
