<svg xmlns="http://www.w3.org/2000/svg" width="52" height="52">
  <g data-name="Group 92">
    <g data-name="Location Icon" fill="none">
      <g data-name="Path 10" stroke-linecap="round">
        <path d="M19.1 0a19.086 19.086 0 0119.1 19.072c0 10.533-15.851 31.941-19.1 31.941S0 29.606 0 19.072A19.086 19.086 0 0119.1 0z"/>
        <path d="M19.1 2A17.001 17.001 0 007.007 7.001 16.947 16.947 0 002 19.072c0 3.971 2.812 10.73 7.523 18.082 1.957 3.055 4.113 5.996 6.069 8.281 1.941 2.268 3.034 3.138 3.508 3.452.473-.314 1.566-1.184 3.507-3.452 1.956-2.285 4.112-5.226 6.07-8.281 4.71-7.351 7.522-14.11 7.522-18.082 0-4.56-1.778-8.846-5.007-12.07A17.001 17.001 0 0019.1 2m0-2c10.548 0 19.1 8.539 19.1 19.072 0 10.534-15.851 31.942-19.1 31.942-3.25 0-19.1-21.408-19.1-31.942C0 8.54 8.551 0 19.1 0z" fill="#4484a6"/>
      </g>
      <g data-name="Ellipse 6" transform="translate(10.59 9.591)" stroke="#4484a6" stroke-linejoin="round" stroke-width="2">
        <ellipse cx="8.51" cy="8.498" rx="8.51" ry="8.498" stroke="none"/>
        <ellipse cx="8.51" cy="8.498" rx="7.51" ry="7.498"/>
      </g>
    </g>
  </g>
</svg>