<svg xmlns="http://www.w3.org/2000/svg" viewBox="0 0 38.199 51.014">
  <g id="Group_92" data-name="Group 92" transform="translate(-399 -1864)">
    <g id="Location_Icon" data-name="Location Icon" transform="translate(399 1864)">
      <g id="Path_10" data-name="Path 10" fill="none" stroke-linecap="round">
        <path d="M19.1,0A19.086,19.086,0,0,1,38.2,19.072c0,10.533-15.851,31.941-19.1,31.941S0,29.606,0,19.072A19.086,19.086,0,0,1,19.1,0Z" stroke="none"/>
        <path d="M 19.09959030151367 1.999996185302734 C 14.53158950805664 1.999996185302734 10.23715019226074 3.776195526123047 7.007350921630859 7.001407623291016 C 3.778308868408203 10.22584533691406 2 14.51275634765625 2 19.07243537902832 C 2 23.04312515258789 4.812301635742188 29.8025951385498 9.522899627685547 37.15401458740234 C 11.48044967651367 40.208984375 13.63578033447266 43.14991760253906 15.59185028076172 45.43505477905273 C 17.53349685668945 47.70334625244141 18.62606620788574 48.57276916503906 19.09959030151367 48.88742446899414 C 19.5731143951416 48.57276916503906 20.66568374633789 47.70334625244141 22.60733032226562 45.43505477905273 C 24.56340026855469 43.14991760253906 26.71873092651367 40.208984375 28.6762809753418 37.15401458740234 C 33.38687896728516 29.8025951385498 36.19918060302734 23.04312515258789 36.19918060302734 19.07243537902832 C 36.19918060302734 14.51275634765625 34.42087173461914 10.22584533691406 31.19182968139648 7.001407623291016 C 27.9620304107666 3.776195526123047 23.6675910949707 1.999996185302734 19.09959030151367 1.999996185302734 M 19.09959030151367 -3.814697265625e-06 C 29.64800071716309 -3.814697265625e-06 38.19918060302734 8.539016723632812 38.19918060302734 19.07243537902832 C 38.19918060302734 29.60585594177246 22.34856033325195 51.01374435424805 19.09959030151367 51.01374435424805 C 15.85062026977539 51.01374435424805 0 29.60585594177246 0 19.07243537902832 C 0 8.539016723632812 8.551179885864258 -3.814697265625e-06 19.09959030151367 -3.814697265625e-06 Z" stroke="none" fill="#4484a6"/>
      </g>
      <g id="Ellipse_6" data-name="Ellipse 6" transform="translate(10.59 9.591)" fill="none" stroke="#4484a6" stroke-linejoin="round" stroke-width="2">
        <ellipse cx="8.51" cy="8.498" rx="8.51" ry="8.498" stroke="none"/>
        <ellipse cx="8.51" cy="8.498" rx="7.51" ry="7.498" fill="none"/>
      </g>
    </g>
  </g>
</svg>
